<?xml version="1.0" encoding="iso-8859-1"?>
<!-- Generator: Adobe Illustrator 16.0.0, SVG Export Plug-In . SVG Version: 6.00 Build 0)  -->
<!DOCTYPE svg PUBLIC "-//W3C//DTD SVG 1.1//EN" "http://www.w3.org/Graphics/SVG/1.1/DTD/svg11.dtd">
<svg version="1.1" id="Capa_1" xmlns="http://www.w3.org/2000/svg" xmlns:xlink="http://www.w3.org/1999/xlink" x="0px" y="0px"
	 width="36.352px" height="36.352px" viewBox="0 0 36.352 36.352" style="enable-background:new 0 0 36.352 36.352;"
	 xml:space="preserve">
<g>
	<path d="M23.532,13.292c0.088,0.13,0.131,0.287,0.131,0.475c0,0.221-0.062,0.41-0.186,0.566c-0.123,0.157-0.273,0.262-0.449,0.311
		c-0.178,0.05-0.397,0.074-0.668,0.074h-0.461c-0.152,0-0.248-0.008-0.281-0.024c-0.034-0.017-0.061-0.046-0.074-0.088
		c-0.014-0.033-0.02-0.146-0.021-0.34v-1.368h0.816c0.357,0,0.625,0.033,0.801,0.1C23.317,13.062,23.446,13.161,23.532,13.292z
		 M23.021,11.878c0.057-0.02,0.102-0.048,0.147-0.074c0.098-0.054,0.184-0.118,0.241-0.2c0.088-0.122,0.134-0.264,0.134-0.424
		c0-0.166-0.042-0.308-0.125-0.425c-0.013-0.017-0.03-0.028-0.046-0.044c-0.078-0.093-0.182-0.166-0.314-0.208
		c-0.154-0.051-0.438-0.075-0.842-0.075h-0.691v0.283v1.093v0.165h0.691C22.577,11.968,22.845,11.937,23.021,11.878z M24.685,4.985
		c1.582,0.506,3,1.526,3.991,2.873c0.099,0.133,0.249,0.204,0.401,0.204c0.104,0,0.207-0.032,0.298-0.097
		c0.222-0.164,0.271-0.477,0.104-0.699c-0.937-1.272-2.222-2.261-3.66-2.891c-0.273-0.12-0.547-0.25-0.832-0.341
		c-0.264-0.085-0.545,0.061-0.629,0.324c-0.052,0.163-0.009,0.328,0.09,0.453C24.509,4.885,24.585,4.951,24.685,4.985z
		 M15.397,8.118c0.154,0,0.309-0.072,0.405-0.207c0.58-0.803,1.322-1.473,2.149-2.01c0.568-0.369,1.171-0.685,1.814-0.896
		c0.107-0.036,0.189-0.109,0.249-0.196c0.085-0.125,0.12-0.281,0.069-0.435c-0.088-0.263-0.37-0.405-0.631-0.319
		c-0.57,0.188-1.11,0.454-1.633,0.754c-0.539,0.311-1.043,0.678-1.51,1.093c-0.484,0.432-0.939,0.896-1.32,1.424
		C14.827,7.55,14.878,7.863,15.1,8.024C15.194,8.088,15.295,8.118,15.397,8.118z M35.343,19.061v2.334c0,1.93-1.506,3.5-3.355,3.5
		h-0.229l-3.837,9.889c-0.35,0.896-1.335,1.568-2.295,1.568h-14.9c-0.96,0-1.946-0.674-2.294-1.568l-3.839-9.891H4.365
		c-1.852,0-3.356-1.568-3.356-3.5v-2.332c0-1.93,1.506-3.5,3.356-3.5h2.576v-1.385l-4.468-2.822
		c-0.467-0.295-0.606-0.913-0.312-1.379c0.295-0.466,0.912-0.606,1.38-0.311l3.72,2.351c0.15-0.127,0.34-0.212,0.553-0.212h4.037
		c0.026-0.37,0.071-0.734,0.137-1.093H7.814c-0.481,0-0.873-0.392-0.873-0.874v-3.06c0-0.482,0.392-0.874,0.873-0.874h6.41
		c0.326-0.392,0.688-0.752,1.065-1.093H7.813c-0.482,0-0.875-0.392-0.875-0.874v-3.06C6.938,0.393,7.331,0,7.813,0h17.266
		c0.481,0,0.875,0.393,0.875,0.875v1.937c3.937,1.498,6.746,5.3,6.746,9.756c0,1.05-0.159,2.063-0.449,3.021
		C33.977,15.734,35.343,17.226,35.343,19.061z M26.057,34.059l3.558-9.164H6.738l3.559,9.164c0.05,0.131,0.291,0.295,0.43,0.295
		h14.9C25.765,34.352,26.006,34.188,26.057,34.059z M31.987,22.895c0.223,0,0.43-0.064,0.613-0.17c0.438-0.25,0.742-0.75,0.742-1.33
		v-0.678v-0.723V19.06c0-0.825-0.607-1.5-1.355-1.5h-0.56h-0.579H30.26h-0.585h-1.062h-0.693h-11.32h-0.56l0.226,0.142l1.267,0.799
		c0.014-0.007,0.028-0.009,0.043-0.015c0.188-0.07,0.39-0.113,0.603-0.113c0.39,0,0.745,0.135,1.033,0.352
		c0.319,0.244,0.555,0.592,0.644,0.998c0.002,0,0.002,0.002,0.002,0.002c0.024,0.119,0.041,0.24,0.041,0.367
		c0,0.021-0.007,0.045-0.008,0.068c-0.008,0.199-0.048,0.391-0.117,0.563c-0.055,0.138-0.127,0.265-0.215,0.382
		c-0.105,0.146-0.232,0.272-0.379,0.377c-0.193,0.141-0.417,0.244-0.661,0.293c-0.108,0.021-0.224,0.032-0.34,0.032
		c-0.726,0-1.342-0.448-1.595-1.084l0,0c-0.065-0.166-0.104-0.344-0.113-0.53l-0.742-0.47l-0.9-0.567l-0.683-0.433l-0.562-0.354
		L12.522,17.7l-0.225-0.142H4.365c-0.748,0-1.356,0.673-1.356,1.5v0.935v0.725v0.676c0,0.582,0.304,1.082,0.742,1.33
		c0.185,0.105,0.392,0.17,0.614,0.17h0.523H5.96h14.816h2.965h6.648h1.072h0.525V22.895z M12.853,11.802
		c-0.021,0.253-0.038,0.507-0.038,0.766c0,1.047,0.178,2.051,0.493,2.993h0.517c-0.334-0.945-0.521-1.941-0.524-2.968
		c-0.001-0.276,0.224-0.501,0.499-0.501h0.001c0.274,0,0.499,0.223,0.5,0.499c0.003,1.036,0.226,2.034,0.606,2.971h0.416
		c-0.396-0.918-0.619-1.929-0.619-2.993c0-0.258,0.015-0.514,0.039-0.766c0.037-0.374,0.111-0.737,0.201-1.093
		c0.526-2.081,1.91-3.82,3.76-4.809c1.061-0.566,2.27-0.89,3.556-0.89c4.173,0,7.556,3.383,7.556,7.557
		c0,1.063-0.222,2.075-0.619,2.993h0.416c0.388-0.944,0.607-1.949,0.607-2.993c0-0.276,0.225-0.525,0.499-0.525
		c0.276,0,0.5,0.199,0.5,0.476h-0.5l0.5,0.021c0.001,1.052-0.188,2.063-0.528,3.021h0.521c0.314-0.942,0.492-1.946,0.492-2.993
		c0-3.896-2.369-7.248-5.744-8.689c-1.139-0.486-2.387-0.756-3.698-0.756c-1.995,0-3.846,0.625-5.371,1.686
		c-0.469,0.326-0.91,0.689-1.312,1.093c-1.287,1.292-2.203,2.953-2.575,4.809C12.928,11.068,12.882,11.432,12.853,11.802z
		 M19.21,15.561h4.736c0.063-0.019,0.142-0.033,0.196-0.055c0.37-0.148,0.655-0.363,0.857-0.646c0.202-0.281,0.304-0.59,0.304-0.926
		c0-0.281-0.066-0.535-0.199-0.764c-0.133-0.228-0.312-0.404-0.539-0.531c-0.156-0.092-0.385-0.174-0.68-0.25
		c0.275-0.094,0.498-0.212,0.666-0.355c0.084-0.071,0.157-0.148,0.223-0.23c0.063-0.083,0.118-0.171,0.164-0.266
		c0.088-0.188,0.133-0.385,0.133-0.594c0-0.081-0.021-0.156-0.035-0.233c-0.032-0.196-0.096-0.385-0.217-0.558
		c-0.17-0.24-0.41-0.424-0.726-0.553c-0.121-0.049-0.267-0.087-0.423-0.117V8.368h-1.07v1.041h-0.688V8.368h-1.071v1.041h-1.633
		v0.873h0.25c0.166,0,0.278,0.016,0.338,0.046c0.06,0.029,0.101,0.071,0.124,0.122c0.02,0.04,0.027,0.135,0.031,0.261
		c0.002,0.034,0.004,0.058,0.004,0.098v0.995v2.529c0,0.186-0.012,0.303-0.035,0.355c-0.023,0.054-0.064,0.094-0.124,0.123
		c-0.06,0.028-0.172,0.043-0.338,0.043h-0.25L19.21,15.561L19.21,15.561z"/>
</g>
<g>
</g>
<g>
</g>
<g>
</g>
<g>
</g>
<g>
</g>
<g>
</g>
<g>
</g>
<g>
</g>
<g>
</g>
<g>
</g>
<g>
</g>
<g>
</g>
<g>
</g>
<g>
</g>
<g>
</g>
</svg>
